<svg xmlns="http://www.w3.org/2000/svg" viewBox="0 0 32 32">
  <rect width="32" height="32" rx="4" fill="#1DB954"/>
  <path d="M16 8C11.6 8 8 11.6 8 16s3.6 8 8 8 8-3.6 8-8-3.6-8-8-8zm3.7 11.5c-.1.2-.4.3-.6.2-1.6-1-3.7-1.2-6.1-.7-.2.1-.5-.1-.5-.3-.1-.2.1-.5.3-.5 2.7-.6 5-.3 6.8.8.2 0 .3.3.1.5zm.8-1.9c-.2.2-.5.3-.7.1-1.9-1.2-4.7-1.5-6.9-.8-.3.1-.6-.1-.6-.4-.1-.3.1-.6.4-.6 2.5-.8 5.6-.4 7.8 1 .2.1.2.5 0 .7zm.1-2c-2.3-1.3-6-1.5-8.1-.8-.3.1-.7-.1-.8-.4-.1-.3.1-.7.4-.8 2.5-.8 6.5-.6 9.1.9.3.2.4.6.2.9-.2.3-.5.4-.8.2z" fill="white"/>
</svg>